# Blender v2.79 (sub 0) OBJ File: 'crusher.blend'
# www.blender.org
mtllib crusher.mtl
o Object.021
v -0.298740 0.296526 0.033199
v -0.298742 0.119216 0.033197
v -0.497842 0.207862 0.135923
v -0.298732 0.296524 0.238613
v -0.298733 0.119213 0.238611
v -0.298742 -0.123587 0.033197
v -0.298744 -0.300897 0.033195
v -0.497843 -0.212252 0.135921
v -0.298733 -0.123590 0.238611
v -0.298735 -0.300900 0.238609
v -0.298729 0.300896 0.238614
v -0.121419 0.300896 0.238606
v -0.210068 0.500001 0.135898
v -0.298738 0.300899 0.033204
v -0.121427 0.300899 0.033196
v 0.298681 -0.300898 0.033170
v 0.298681 -0.123588 0.033171
v 0.497790 -0.212236 0.135879
v 0.298689 -0.300900 0.238583
v 0.298689 -0.123590 0.238584
v -0.088685 -0.300895 0.033184
v 0.088625 -0.300896 0.033177
v -0.000018 -0.499999 0.135896
v -0.088676 -0.300895 0.238595
v 0.088634 -0.300896 0.238588
v 0.121383 0.300889 0.238596
v 0.298694 0.300888 0.238588
v 0.210044 0.499993 0.135880
v 0.121375 0.300892 0.033185
v 0.298685 0.300891 0.033178
v 0.298682 -0.090841 0.033172
v 0.298682 0.086469 0.033173
v 0.497791 -0.002179 0.135880
v 0.298691 -0.090843 0.238585
v 0.298691 0.086468 0.238585
v 0.121372 -0.300897 0.033176
v 0.298682 -0.300898 0.033168
v 0.210039 -0.500001 0.135887
v 0.121380 -0.300897 0.238586
v 0.298690 -0.300898 0.238579
v -0.298743 -0.300887 0.000029
v 0.298680 -0.300890 0.000004
v -0.298732 -0.300885 0.271781
v 0.298695 0.300891 0.271752
v -0.298740 0.300892 0.000025
v -0.298729 0.300894 0.271777
v 0.298683 0.300889 0.000000
v 0.298692 -0.300888 0.271756
v -0.298741 0.086469 0.033198
v -0.298743 -0.090841 0.033196
v -0.497842 -0.002196 0.135922
v -0.298732 0.086466 0.238612
v -0.298734 -0.090844 0.238610
v -0.088673 0.300896 0.238605
v 0.088637 0.300896 0.238597
v -0.000013 0.500001 0.135888
v -0.088682 0.300899 0.033194
v 0.088628 0.300899 0.033187
v -0.298742 -0.300894 0.033193
v -0.121432 -0.300895 0.033186
v -0.210075 -0.499998 0.135905
v -0.298733 -0.300894 0.238604
v -0.121423 -0.300895 0.238596
v 0.298683 0.119214 0.033173
v 0.298683 0.296525 0.033173
v 0.497792 0.207877 0.135881
v 0.298692 0.119213 0.238586
v 0.298692 0.296523 0.238586
v -0.298740 0.296526 -0.170166
v -0.298742 0.119216 -0.170169
v -0.497842 0.207862 -0.067442
v -0.298732 0.296524 0.035248
v -0.298733 0.119213 0.035245
v -0.298742 -0.123587 -0.170169
v -0.298744 -0.300897 -0.170171
v -0.497843 -0.212252 -0.067445
v -0.298733 -0.123590 0.035245
v -0.298735 -0.300900 0.035243
v -0.298729 0.300896 0.035249
v -0.121419 0.300896 0.035241
v -0.210068 0.500001 -0.067467
v -0.298738 0.300899 -0.170161
v -0.121427 0.300899 -0.170169
v 0.298681 -0.300898 -0.170196
v 0.298681 -0.123588 -0.170195
v 0.497790 -0.212236 -0.067487
v 0.298689 -0.300900 0.035217
v 0.298689 -0.123590 0.035218
v -0.088685 -0.300895 -0.170182
v 0.088625 -0.300896 -0.170189
v -0.000018 -0.499999 -0.067470
v -0.088676 -0.300895 0.035229
v 0.088634 -0.300896 0.035222
v 0.121383 0.300889 0.035231
v 0.298694 0.300888 0.035223
v 0.210044 0.499993 -0.067485
v 0.121375 0.300892 -0.170180
v 0.298685 0.300891 -0.170187
v 0.298682 -0.090841 -0.170194
v 0.298682 0.086469 -0.170193
v 0.497791 -0.002179 -0.067486
v 0.298691 -0.090843 0.035219
v 0.298691 0.086468 0.035219
v 0.121372 -0.300897 -0.170190
v 0.298682 -0.300898 -0.170198
v 0.210039 -0.500001 -0.067479
v 0.121380 -0.300897 0.035220
v 0.298690 -0.300898 0.035213
v -0.298743 -0.300887 -0.203337
v 0.298680 -0.300890 -0.203362
v -0.298732 -0.300885 0.068415
v 0.298695 0.300891 0.068387
v -0.298740 0.300892 -0.203340
v -0.298729 0.300894 0.068412
v 0.298683 0.300889 -0.203365
v 0.298692 -0.300888 0.068390
v -0.298741 0.086469 -0.170168
v -0.298743 -0.090841 -0.170170
v -0.497842 -0.002196 -0.067444
v -0.298732 0.086466 0.035246
v -0.298734 -0.090844 0.035244
v -0.088673 0.300896 0.035240
v 0.088637 0.300896 0.035232
v -0.000013 0.500001 -0.067477
v -0.088682 0.300899 -0.170171
v 0.088628 0.300899 -0.170178
v -0.298742 -0.300894 -0.170173
v -0.121432 -0.300895 -0.170180
v -0.210075 -0.499998 -0.067461
v -0.298733 -0.300894 0.035238
v -0.121423 -0.300895 0.035230
v 0.298683 0.119214 -0.170193
v 0.298683 0.296525 -0.170192
v 0.497792 0.207877 -0.067484
v 0.298692 0.119213 0.035220
v 0.298692 0.296523 0.035221
v -0.298740 0.296526 -0.384166
v -0.298742 0.119216 -0.384168
v -0.497842 0.207862 -0.281442
v -0.298732 0.296524 -0.178752
v -0.298733 0.119213 -0.178754
v -0.298742 -0.123587 -0.384168
v -0.298744 -0.300897 -0.384170
v -0.497843 -0.212252 -0.281444
v -0.298733 -0.123590 -0.178754
v -0.298735 -0.300900 -0.178756
v -0.298729 0.300896 -0.178751
v -0.121419 0.300896 -0.178759
v -0.210068 0.500001 -0.281467
v -0.298738 0.300899 -0.384161
v -0.121427 0.300899 -0.384169
v 0.298681 -0.300898 -0.384195
v 0.298681 -0.123588 -0.384194
v 0.497790 -0.212236 -0.281486
v 0.298689 -0.300900 -0.178782
v 0.298689 -0.123590 -0.178781
v -0.088685 -0.300895 -0.384181
v 0.088625 -0.300896 -0.384188
v -0.000018 -0.499999 -0.281469
v -0.088676 -0.300895 -0.178770
v 0.088634 -0.300896 -0.178777
v 0.121383 0.300889 -0.178769
v 0.298694 0.300888 -0.178777
v 0.210044 0.499993 -0.281485
v 0.121375 0.300892 -0.384180
v 0.298685 0.300891 -0.384187
v 0.298682 -0.090841 -0.384193
v 0.298682 0.086469 -0.384192
v 0.497791 -0.002179 -0.281485
v 0.298691 -0.090843 -0.178780
v 0.298691 0.086468 -0.178780
v 0.121372 -0.300897 -0.384189
v 0.298682 -0.300898 -0.384197
v 0.210039 -0.500001 -0.281478
v 0.121380 -0.300897 -0.178779
v 0.298690 -0.300898 -0.178786
v -0.298743 -0.300887 -0.417336
v 0.298680 -0.300890 -0.417361
v -0.298732 -0.300885 -0.145584
v 0.298695 0.300891 -0.145613
v -0.298740 0.300892 -0.417340
v -0.298729 0.300894 -0.145588
v 0.298683 0.300889 -0.417365
v 0.298692 -0.300888 -0.145609
v -0.298741 0.086469 -0.384167
v -0.298743 -0.090841 -0.384169
v -0.497842 -0.002196 -0.281443
v -0.298732 0.086466 -0.178753
v -0.298734 -0.090844 -0.178755
v -0.088673 0.300896 -0.178760
v 0.088637 0.300896 -0.178768
v -0.000013 0.500001 -0.281477
v -0.088682 0.300899 -0.384171
v 0.088628 0.300899 -0.384178
v -0.298742 -0.300894 -0.384172
v -0.121432 -0.300895 -0.384179
v -0.210075 -0.499998 -0.281460
v -0.298733 -0.300894 -0.178761
v -0.121423 -0.300895 -0.178769
v 0.298683 0.119214 -0.384192
v 0.298683 0.296525 -0.384192
v 0.497792 0.207877 -0.281484
v 0.298692 0.119213 -0.178779
v 0.298692 0.296523 -0.178779
vt 0.000000 0.000000
vt 1.000000 0.000000
vt 1.000000 1.000000
vt 0.000000 0.000000
vt 1.000000 1.000000
vt 1.000000 0.000000
vt 1.000000 1.000000
vt 0.000000 0.000000
vt 1.000000 0.000000
vt 0.000000 0.000000
vt 1.000000 0.000000
vt 0.000000 0.000000
vt 1.000000 0.000000
vt 1.000000 1.000000
vt 0.000000 0.000000
vt 1.000000 1.000000
vt 1.000000 0.000000
vt 1.000000 1.000000
vt 0.000000 0.000000
vt 1.000000 0.000000
vt 0.000000 0.000000
vt 1.000000 0.000000
vt 0.000000 0.000000
vt 1.000000 0.000000
vt 1.000000 1.000000
vt 0.000000 0.000000
vt 1.000000 1.000000
vt 1.000000 0.000000
vt 1.000000 1.000000
vt 0.000000 0.000000
vt 1.000000 0.000000
vt 0.000000 0.000000
vt 1.000000 0.000000
vt 0.000000 0.000000
vt 1.000000 0.000000
vt 1.000000 1.000000
vt 0.000000 0.000000
vt 1.000000 1.000000
vt 1.000000 0.000000
vt 1.000000 1.000000
vt 0.000000 0.000000
vt 1.000000 0.000000
vt 0.000000 0.000000
vt 1.000000 0.000000
vt 0.000000 0.000000
vt 1.000000 0.000000
vt 1.000000 1.000000
vt 0.000000 0.000000
vt 1.000000 1.000000
vt 1.000000 0.000000
vt 1.000000 1.000000
vt 0.000000 0.000000
vt 1.000000 0.000000
vt 0.000000 0.000000
vt 1.000000 0.000000
vt 0.000000 0.000000
vt 1.000000 0.000000
vt 1.000000 1.000000
vt 0.000000 0.000000
vt 1.000000 1.000000
vt 1.000000 0.000000
vt 1.000000 1.000000
vt 0.000000 0.000000
vt 1.000000 0.000000
vt 0.000000 0.000000
vt 1.000000 0.000000
vt 0.000000 0.000000
vt 1.000000 0.000000
vt 1.000000 1.000000
vt 0.000000 0.000000
vt 1.000000 1.000000
vt 1.000000 0.000000
vt 1.000000 1.000000
vt 0.000000 0.000000
vt 1.000000 0.000000
vt 0.000000 0.000000
vt 1.000000 0.000000
vt 0.000000 0.000000
vt 1.000000 0.000000
vt 1.000000 1.000000
vt 0.000000 0.000000
vt 1.000000 1.000000
vt 1.000000 0.000000
vt 1.000000 1.000000
vt 0.000000 0.000000
vt 1.000000 0.000000
vt 0.000000 0.000000
vt 1.000000 0.000000
vt 0.000000 0.000000
vt 1.000000 0.000000
vt 1.000000 1.000000
vt 0.000000 0.000000
vt 1.000000 0.000000
vt 1.000000 1.000000
vt 0.000000 0.000000
vt 1.000000 0.000000
vt 1.000000 1.000000
vt 0.000000 0.000000
vt 1.000000 0.000000
vt 1.000000 1.000000
vt 1.000000 0.000000
vt 0.000000 0.000000
vt 1.000000 1.000000
vt 1.000000 0.000000
vt 0.000000 0.000000
vt 0.000000 0.000000
vt 1.000000 1.000000
vt 0.000000 0.000000
vt 1.000000 0.000000
vt 1.000000 1.000000
vt 0.000000 0.000000
vt 1.000000 1.000000
vt 1.000000 0.000000
vt 1.000000 1.000000
vt 0.000000 0.000000
vt 1.000000 0.000000
vt 0.000000 0.000000
vt 1.000000 0.000000
vt 0.000000 0.000000
vt 1.000000 0.000000
vt 1.000000 1.000000
vt 0.000000 0.000000
vt 1.000000 1.000000
vt 1.000000 0.000000
vt 1.000000 1.000000
vt 0.000000 0.000000
vt 1.000000 0.000000
vt 0.000000 0.000000
vt 1.000000 0.000000
vt 0.000000 0.000000
vt 1.000000 0.000000
vt 1.000000 1.000000
vt 0.000000 0.000000
vt 1.000000 1.000000
vt 1.000000 0.000000
vt 1.000000 1.000000
vt 0.000000 0.000000
vt 1.000000 0.000000
vt 0.000000 0.000000
vt 1.000000 0.000000
vt 0.000000 0.000000
vt 1.000000 0.000000
vt 1.000000 1.000000
vt 0.000000 0.000000
vt 1.000000 1.000000
vt 1.000000 0.000000
vt 1.000000 1.000000
vt 0.000000 0.000000
vt 1.000000 0.000000
vt 0.000000 0.000000
vt 1.000000 0.000000
vt 0.000000 0.000000
vt 1.000000 0.000000
vt 1.000000 1.000000
vt 0.000000 0.000000
vt 1.000000 1.000000
vt 1.000000 0.000000
vt 1.000000 1.000000
vt 0.000000 0.000000
vt 1.000000 0.000000
vt 0.000000 0.000000
vt 1.000000 0.000000
vt 0.000000 0.000000
vt 1.000000 0.000000
vt 1.000000 1.000000
vt 0.000000 0.000000
vt 1.000000 1.000000
vt 1.000000 0.000000
vt 1.000000 1.000000
vt 0.000000 0.000000
vt 1.000000 0.000000
vt 0.000000 0.000000
vt 1.000000 0.000000
vt 0.000000 0.000000
vt 1.000000 0.000000
vt 1.000000 1.000000
vt 0.000000 0.000000
vt 1.000000 1.000000
vt 1.000000 0.000000
vt 1.000000 1.000000
vt 0.000000 0.000000
vt 1.000000 0.000000
vt 0.000000 0.000000
vt 1.000000 0.000000
vt 0.000000 0.000000
vt 1.000000 0.000000
vt 1.000000 1.000000
vt 0.000000 0.000000
vt 1.000000 1.000000
vt 1.000000 0.000000
vt 1.000000 1.000000
vt 0.000000 0.000000
vt 1.000000 0.000000
vt 0.000000 0.000000
vt 1.000000 0.000000
vt 0.000000 0.000000
vt 1.000000 0.000000
vt 1.000000 1.000000
vt 0.000000 0.000000
vt 1.000000 1.000000
vt 1.000000 0.000000
vt 1.000000 1.000000
vt 0.000000 0.000000
vt 1.000000 0.000000
vt 0.000000 0.000000
vt 1.000000 0.000000
vt 0.000000 0.000000
vt 1.000000 0.000000
vt 1.000000 1.000000
vt 0.000000 0.000000
vt 1.000000 1.000000
vt 1.000000 0.000000
vt 1.000000 1.000000
vt 0.000000 0.000000
vt 1.000000 0.000000
vt 0.000000 0.000000
vt 1.000000 0.000000
vt 0.000000 0.000000
vt 1.000000 0.000000
vt 1.000000 1.000000
vt 0.000000 0.000000
vt 1.000000 1.000000
vt 1.000000 0.000000
vt 1.000000 1.000000
vt 0.000000 0.000000
vt 1.000000 0.000000
vt 0.000000 0.000000
vt 1.000000 0.000000
vt 0.000000 0.000000
vt 1.000000 0.000000
vt 1.000000 1.000000
vt 0.000000 0.000000
vt 1.000000 1.000000
vt 1.000000 0.000000
vt 1.000000 1.000000
vt 0.000000 0.000000
vt 1.000000 0.000000
vt 0.000000 0.000000
vt 1.000000 0.000000
vt 0.000000 0.000000
vt 1.000000 0.000000
vt 1.000000 1.000000
vt 0.000000 0.000000
vt 1.000000 0.000000
vt 1.000000 1.000000
vt 0.000000 0.000000
vt 1.000000 0.000000
vt 1.000000 1.000000
vt 0.000000 0.000000
vt 1.000000 0.000000
vt 1.000000 1.000000
vt 1.000000 0.000000
vt 0.000000 0.000000
vt 1.000000 1.000000
vt 1.000000 0.000000
vt 0.000000 0.000000
vt 0.000000 0.000000
vt 1.000000 1.000000
vt 0.000000 0.000000
vt 1.000000 0.000000
vt 1.000000 1.000000
vt 0.000000 0.000000
vt 1.000000 1.000000
vt 1.000000 0.000000
vt 1.000000 1.000000
vt 0.000000 0.000000
vt 1.000000 0.000000
vt 0.000000 0.000000
vt 1.000000 0.000000
vt 0.000000 0.000000
vt 1.000000 0.000000
vt 1.000000 1.000000
vt 0.000000 0.000000
vt 1.000000 1.000000
vt 1.000000 0.000000
vt 1.000000 1.000000
vt 0.000000 0.000000
vt 1.000000 0.000000
vt 0.000000 0.000000
vt 1.000000 0.000000
vt 0.000000 0.000000
vt 1.000000 0.000000
vt 1.000000 1.000000
vt 0.000000 0.000000
vt 1.000000 1.000000
vt 1.000000 0.000000
vt 1.000000 1.000000
vt 0.000000 0.000000
vt 1.000000 0.000000
vt 0.000000 0.000000
vt 1.000000 0.000000
vt 0.000000 0.000000
vt 1.000000 0.000000
vt 1.000000 1.000000
vt 0.000000 0.000000
vt 1.000000 1.000000
vt 1.000000 0.000000
vt 1.000000 1.000000
vt 0.000000 0.000000
vt 1.000000 0.000000
vt 0.000000 0.000000
vt 1.000000 0.000000
vt 0.000000 0.000000
vt 1.000000 0.000000
vt 1.000000 1.000000
vt 0.000000 0.000000
vt 1.000000 1.000000
vt 1.000000 0.000000
vt 1.000000 1.000000
vt 0.000000 0.000000
vt 1.000000 0.000000
vt 0.000000 0.000000
vt 1.000000 0.000000
vt 0.000000 0.000000
vt 1.000000 0.000000
vt 1.000000 1.000000
vt 0.000000 0.000000
vt 1.000000 1.000000
vt 1.000000 0.000000
vt 1.000000 1.000000
vt 0.000000 0.000000
vt 1.000000 0.000000
vt 0.000000 0.000000
vt 1.000000 0.000000
vt 0.000000 0.000000
vt 1.000000 0.000000
vt 1.000000 1.000000
vt 0.000000 0.000000
vt 1.000000 1.000000
vt 1.000000 0.000000
vt 1.000000 1.000000
vt 0.000000 0.000000
vt 1.000000 0.000000
vt 0.000000 0.000000
vt 1.000000 0.000000
vt 0.000000 0.000000
vt 1.000000 0.000000
vt 1.000000 1.000000
vt 0.000000 0.000000
vt 1.000000 1.000000
vt 1.000000 0.000000
vt 1.000000 1.000000
vt 0.000000 0.000000
vt 1.000000 0.000000
vt 0.000000 0.000000
vt 1.000000 0.000000
vt 0.000000 0.000000
vt 1.000000 0.000000
vt 1.000000 1.000000
vt 0.000000 0.000000
vt 1.000000 1.000000
vt 1.000000 0.000000
vt 1.000000 1.000000
vt 0.000000 0.000000
vt 1.000000 0.000000
vt 0.000000 0.000000
vt 1.000000 0.000000
vt 0.000000 0.000000
vt 1.000000 0.000000
vt 1.000000 1.000000
vt 0.000000 0.000000
vt 1.000000 1.000000
vt 1.000000 0.000000
vt 1.000000 1.000000
vt 0.000000 0.000000
vt 1.000000 0.000000
vt 0.000000 0.000000
vt 1.000000 0.000000
vt 0.000000 0.000000
vt 1.000000 0.000000
vt 1.000000 1.000000
vt 0.000000 0.000000
vt 1.000000 1.000000
vt 1.000000 0.000000
vt 1.000000 1.000000
vt 0.000000 0.000000
vt 1.000000 0.000000
vt 0.000000 0.000000
vt 1.000000 0.000000
vt 0.000000 0.000000
vt 1.000000 0.000000
vt 1.000000 1.000000
vt 0.000000 0.000000
vt 1.000000 1.000000
vt 1.000000 0.000000
vt 1.000000 1.000000
vt 0.000000 0.000000
vt 1.000000 0.000000
vt 0.000000 0.000000
vt 1.000000 0.000000
vt 0.000000 0.000000
vt 1.000000 0.000000
vt 1.000000 1.000000
vt 0.000000 0.000000
vt 1.000000 0.000000
vt 1.000000 1.000000
vt 0.000000 0.000000
vt 1.000000 0.000000
vt 1.000000 1.000000
vt 0.000000 0.000000
vt 1.000000 0.000000
vt 1.000000 1.000000
vt 1.000000 0.000000
vt 0.000000 0.000000
vt 1.000000 1.000000
vt 1.000000 0.000000
vt 0.000000 0.000000
vt 0.000000 0.000000
vt 1.000000 1.000000
vt 0.000000 0.000000
vt 1.000000 0.000000
vt 1.000000 1.000000
vt 0.000000 0.000000
vt 1.000000 1.000000
vt 1.000000 0.000000
vt 1.000000 1.000000
vt 0.000000 0.000000
vt 1.000000 0.000000
vt 0.000000 0.000000
vt 1.000000 0.000000
vt 0.000000 0.000000
vt 1.000000 0.000000
vt 1.000000 1.000000
vt 0.000000 0.000000
vt 1.000000 1.000000
vt 1.000000 0.000000
vt 1.000000 1.000000
vt 0.000000 0.000000
vt 1.000000 0.000000
vt 0.000000 0.000000
vt 1.000000 0.000000
vt 0.000000 0.000000
vt 1.000000 0.000000
vt 1.000000 1.000000
vt 0.000000 0.000000
vt 1.000000 1.000000
vt 1.000000 0.000000
vt 1.000000 1.000000
vt 0.000000 0.000000
vt 1.000000 0.000000
vt 0.000000 0.000000
vt 1.000000 0.000000
vt 0.000000 0.000000
vt 1.000000 0.000000
vt 1.000000 1.000000
vt 0.000000 0.000000
vt 1.000000 1.000000
vt 1.000000 0.000000
vt 1.000000 1.000000
vt 0.000000 0.000000
vt 1.000000 0.000000
vt 0.000000 0.000000
vt 1.000000 0.000000
vn -0.4585 0.0000 -0.8887
vn 1.0000 -0.0000 -0.0000
vn -0.4068 0.9135 0.0000
vn -0.4067 -0.9135 0.0000
vn -0.4584 -0.0000 0.8888
vn 0.0000 0.4585 0.8887
vn -0.0000 -1.0000 -0.0000
vn -0.9135 0.4068 0.0000
vn 0.9135 0.4067 -0.0000
vn -0.0000 0.4584 -0.8887
vn 0.4584 0.0000 -0.8887
vn -1.0000 0.0000 0.0000
vn 0.4068 -0.9135 -0.0000
vn 0.4067 0.9135 -0.0000
vn 0.4584 -0.0000 0.8887
vn -0.0000 -0.4585 -0.8887
vn 0.0000 1.0000 0.0000
vn -0.9135 -0.4068 0.0000
vn 0.9135 -0.4067 -0.0000
vn 0.0000 -0.4584 0.8887
vn -0.0000 -0.0000 -1.0000
vn 0.0000 0.0000 1.0000
usemtl None
s off
f 1/1/1 2/2/1 3/3/1
f 4/4/2 2/2/2 1/5/2
f 1/1/3 3/6/3 4/7/3
f 2/8/4 5/9/4 3/3/4
f 5/10/5 4/11/5 3/3/5
f 5/10/2 2/2/2 4/7/2
f 6/12/1 7/13/1 8/14/1
f 9/15/2 7/13/2 6/16/2
f 6/12/3 8/17/3 9/18/3
f 7/19/4 10/20/4 8/14/4
f 10/21/5 9/22/5 8/14/5
f 10/21/2 7/13/2 9/18/2
f 11/23/6 12/24/6 13/25/6
f 14/26/7 12/24/7 11/27/7
f 11/23/8 13/28/8 14/29/8
f 12/30/9 15/31/9 13/25/9
f 15/32/10 14/33/10 13/25/10
f 15/32/7 12/24/7 14/29/7
f 16/34/11 17/35/11 18/36/11
f 19/37/12 17/35/12 16/38/12
f 16/34/13 18/39/13 19/40/13
f 17/41/14 20/42/14 18/36/14
f 20/43/15 19/44/15 18/36/15
f 20/43/12 17/35/12 19/40/12
f 21/45/16 22/46/16 23/47/16
f 24/48/17 22/46/17 21/49/17
f 21/45/18 23/50/18 24/51/18
f 22/52/19 25/53/19 23/47/19
f 25/54/20 24/55/20 23/47/20
f 25/54/17 22/46/17 24/51/17
f 26/56/6 27/57/6 28/58/6
f 29/59/7 27/57/7 26/60/7
f 26/56/8 28/61/8 29/62/8
f 27/63/9 30/64/9 28/58/9
f 30/65/10 29/66/10 28/58/10
f 30/65/7 27/57/7 29/62/7
f 31/67/11 32/68/11 33/69/11
f 34/70/12 32/68/12 31/71/12
f 31/67/13 33/72/13 34/73/13
f 32/74/14 35/75/14 33/69/14
f 35/76/15 34/77/15 33/69/15
f 35/76/12 32/68/12 34/73/12
f 36/78/16 37/79/16 38/80/16
f 39/81/17 37/79/17 36/82/17
f 36/78/18 38/83/18 39/84/18
f 37/85/19 40/86/19 38/80/19
f 40/87/20 39/88/20 38/80/20
f 40/87/17 37/79/17 39/84/17
f 41/89/7 42/90/7 43/91/7
f 44/92/17 45/93/17 46/94/17
f 45/95/17 44/96/17 47/97/17
f 48/98/7 43/99/7 42/100/7
f 45/95/21 47/101/21 42/100/21
f 45/95/12 43/99/12 46/94/12
f 48/98/2 42/90/2 47/97/2
f 46/102/22 43/99/22 48/103/22
f 45/95/12 41/104/12 43/91/12
f 47/105/2 44/96/2 48/103/2
f 42/106/21 41/104/21 45/107/21
f 48/98/22 44/96/22 46/94/22
f 49/108/1 50/109/1 51/110/1
f 52/111/2 50/109/2 49/112/2
f 49/108/3 51/113/3 52/114/3
f 50/115/4 53/116/4 51/110/4
f 53/117/5 52/118/5 51/110/5
f 53/117/2 50/109/2 52/114/2
f 54/119/6 55/120/6 56/121/6
f 57/122/7 55/120/7 54/123/7
f 54/119/8 56/124/8 57/125/8
f 55/126/9 58/127/9 56/121/9
f 58/128/10 57/129/10 56/121/10
f 58/128/7 55/120/7 57/125/7
f 59/130/16 60/131/16 61/132/16
f 62/133/17 60/131/17 59/134/17
f 59/130/18 61/135/18 62/136/18
f 60/137/19 63/138/19 61/132/19
f 63/139/20 62/140/20 61/132/20
f 63/139/17 60/131/17 62/136/17
f 64/141/11 65/142/11 66/143/11
f 67/144/12 65/142/12 64/145/12
f 64/141/13 66/146/13 67/147/13
f 65/148/14 68/149/14 66/143/14
f 68/150/15 67/151/15 66/143/15
f 68/150/12 65/142/12 67/147/12
f 69/152/1 70/153/1 71/154/1
f 72/155/2 70/153/2 69/156/2
f 69/152/3 71/157/3 72/158/3
f 70/159/4 73/160/4 71/154/4
f 73/161/5 72/162/5 71/154/5
f 73/161/2 70/153/2 72/158/2
f 74/163/1 75/164/1 76/165/1
f 77/166/2 75/164/2 74/167/2
f 74/163/3 76/168/3 77/169/3
f 75/170/4 78/171/4 76/165/4
f 78/172/5 77/173/5 76/165/5
f 78/172/2 75/164/2 77/169/2
f 79/174/6 80/175/6 81/176/6
f 82/177/7 80/175/7 79/178/7
f 79/174/8 81/179/8 82/180/8
f 80/181/9 83/182/9 81/176/9
f 83/183/10 82/184/10 81/176/10
f 83/183/7 80/175/7 82/180/7
f 84/185/11 85/186/11 86/187/11
f 87/188/12 85/186/12 84/189/12
f 84/185/13 86/190/13 87/191/13
f 85/192/14 88/193/14 86/187/14
f 88/194/15 87/195/15 86/187/15
f 88/194/12 85/186/12 87/191/12
f 89/196/16 90/197/16 91/198/16
f 92/199/17 90/197/17 89/200/17
f 89/196/18 91/201/18 92/202/18
f 90/203/19 93/204/19 91/198/19
f 93/205/20 92/206/20 91/198/20
f 93/205/17 90/197/17 92/202/17
f 94/207/6 95/208/6 96/209/6
f 97/210/7 95/208/7 94/211/7
f 94/207/8 96/212/8 97/213/8
f 95/214/9 98/215/9 96/209/9
f 98/216/10 97/217/10 96/209/10
f 98/216/7 95/208/7 97/213/7
f 99/218/11 100/219/11 101/220/11
f 102/221/12 100/219/12 99/222/12
f 99/218/13 101/223/13 102/224/13
f 100/225/14 103/226/14 101/220/14
f 103/227/15 102/228/15 101/220/15
f 103/227/12 100/219/12 102/224/12
f 104/229/16 105/230/16 106/231/16
f 107/232/17 105/230/17 104/233/17
f 104/229/18 106/234/18 107/235/18
f 105/236/19 108/237/19 106/231/19
f 108/238/20 107/239/20 106/231/20
f 108/238/17 105/230/17 107/235/17
f 109/240/7 110/241/7 111/242/7
f 112/243/17 113/244/17 114/245/17
f 113/246/17 112/247/17 115/248/17
f 116/249/7 111/250/7 110/251/7
f 113/246/21 115/252/21 110/251/21
f 113/246/12 111/250/12 114/245/12
f 116/249/2 110/241/2 115/248/2
f 114/253/22 111/250/22 116/254/22
f 113/246/12 109/255/12 111/242/12
f 115/256/2 112/247/2 116/254/2
f 110/257/21 109/255/21 113/258/21
f 116/249/22 112/247/22 114/245/22
f 117/259/1 118/260/1 119/261/1
f 120/262/2 118/260/2 117/263/2
f 117/259/3 119/264/3 120/265/3
f 118/266/4 121/267/4 119/261/4
f 121/268/5 120/269/5 119/261/5
f 121/268/2 118/260/2 120/265/2
f 122/270/6 123/271/6 124/272/6
f 125/273/7 123/271/7 122/274/7
f 122/270/8 124/275/8 125/276/8
f 123/277/9 126/278/9 124/272/9
f 126/279/10 125/280/10 124/272/10
f 126/279/7 123/271/7 125/276/7
f 127/281/16 128/282/16 129/283/16
f 130/284/17 128/282/17 127/285/17
f 127/281/18 129/286/18 130/287/18
f 128/288/19 131/289/19 129/283/19
f 131/290/20 130/291/20 129/283/20
f 131/290/17 128/282/17 130/287/17
f 132/292/11 133/293/11 134/294/11
f 135/295/12 133/293/12 132/296/12
f 132/292/13 134/297/13 135/298/13
f 133/299/14 136/300/14 134/294/14
f 136/301/15 135/302/15 134/294/15
f 136/301/12 133/293/12 135/298/12
f 137/303/1 138/304/1 139/305/1
f 140/306/2 138/304/2 137/307/2
f 137/303/3 139/308/3 140/309/3
f 138/310/4 141/311/4 139/305/4
f 141/312/5 140/313/5 139/305/5
f 141/312/2 138/304/2 140/309/2
f 142/314/1 143/315/1 144/316/1
f 145/317/2 143/315/2 142/318/2
f 142/314/3 144/319/3 145/320/3
f 143/321/4 146/322/4 144/316/4
f 146/323/5 145/324/5 144/316/5
f 146/323/2 143/315/2 145/320/2
f 147/325/6 148/326/6 149/327/6
f 150/328/7 148/326/7 147/329/7
f 147/325/8 149/330/8 150/331/8
f 148/332/9 151/333/9 149/327/9
f 151/334/10 150/335/10 149/327/10
f 151/334/7 148/326/7 150/331/7
f 152/336/11 153/337/11 154/338/11
f 155/339/12 153/337/12 152/340/12
f 152/336/13 154/341/13 155/342/13
f 153/343/14 156/344/14 154/338/14
f 156/345/15 155/346/15 154/338/15
f 156/345/12 153/337/12 155/342/12
f 157/347/16 158/348/16 159/349/16
f 160/350/17 158/348/17 157/351/17
f 157/347/18 159/352/18 160/353/18
f 158/354/19 161/355/19 159/349/19
f 161/356/20 160/357/20 159/349/20
f 161/356/17 158/348/17 160/353/17
f 162/358/6 163/359/6 164/360/6
f 165/361/7 163/359/7 162/362/7
f 162/358/8 164/363/8 165/364/8
f 163/365/9 166/366/9 164/360/9
f 166/367/10 165/368/10 164/360/10
f 166/367/7 163/359/7 165/364/7
f 167/369/11 168/370/11 169/371/11
f 170/372/12 168/370/12 167/373/12
f 167/369/13 169/374/13 170/375/13
f 168/376/14 171/377/14 169/371/14
f 171/378/15 170/379/15 169/371/15
f 171/378/12 168/370/12 170/375/12
f 172/380/16 173/381/16 174/382/16
f 175/383/17 173/381/17 172/384/17
f 172/380/18 174/385/18 175/386/18
f 173/387/19 176/388/19 174/382/19
f 176/389/20 175/390/20 174/382/20
f 176/389/17 173/381/17 175/386/17
f 177/391/7 178/392/7 179/393/7
f 180/394/17 181/395/17 182/396/17
f 181/397/17 180/398/17 183/399/17
f 184/400/7 179/401/7 178/402/7
f 181/397/21 183/403/21 178/402/21
f 181/397/12 179/401/12 182/396/12
f 184/400/2 178/392/2 183/399/2
f 182/404/22 179/401/22 184/405/22
f 181/397/12 177/406/12 179/393/12
f 183/407/2 180/398/2 184/405/2
f 178/408/21 177/406/21 181/409/21
f 184/400/22 180/398/22 182/396/22
f 185/410/1 186/411/1 187/412/1
f 188/413/2 186/411/2 185/414/2
f 185/410/3 187/415/3 188/416/3
f 186/417/4 189/418/4 187/412/4
f 189/419/5 188/420/5 187/412/5
f 189/419/2 186/411/2 188/416/2
f 190/421/6 191/422/6 192/423/6
f 193/424/7 191/422/7 190/425/7
f 190/421/8 192/426/8 193/427/8
f 191/428/9 194/429/9 192/423/9
f 194/430/10 193/431/10 192/423/10
f 194/430/7 191/422/7 193/427/7
f 195/432/16 196/433/16 197/434/16
f 198/435/17 196/433/17 195/436/17
f 195/432/18 197/437/18 198/438/18
f 196/439/19 199/440/19 197/434/19
f 199/441/20 198/442/20 197/434/20
f 199/441/17 196/433/17 198/438/17
f 200/443/11 201/444/11 202/445/11
f 203/446/12 201/444/12 200/447/12
f 200/443/13 202/448/13 203/449/13
f 201/450/14 204/451/14 202/445/14
f 204/452/15 203/453/15 202/445/15
f 204/452/12 201/444/12 203/449/12
