# Blender v2.79 (sub 0) OBJ File: 'icosahedron.blend'
# www.blender.org
mtllib icosahedron.mtl
o Plane.003
v -0.577348 0.755761 -0.000000
v -0.934170 -0.178412 -0.000000
v 0.934170 0.178412 0.000000
v 0.577348 -0.755761 0.000000
v -0.288674 -0.755759 0.500000
v -0.288674 -0.755759 -0.500000
v 0.288674 0.755759 0.500000
v 0.288674 0.755759 -0.500000
v -0.467086 0.178411 0.809017
v 0.467086 -0.178411 0.809017
v -0.467086 0.178411 -0.809017
v 0.467086 -0.178411 -0.809017
vt 0.000000 0.000000
vt 1.000000 1.000000
vt 1.000000 0.000000
vt 0.000000 0.000000
vt 1.000000 0.000000
vt 0.000000 0.000000
vt 1.000000 1.000000
vt 1.000000 0.000000
vt 0.000000 0.000000
vt 1.000000 0.000000
vt 1.000000 1.000000
vt 0.000000 0.000000
vt 1.000000 0.000000
vt 0.000000 0.000000
vt 1.000000 0.000000
vt 0.000000 0.000000
vt 1.000000 1.000000
vt 1.000000 0.000000
vt 1.000000 1.000000
vt 0.000000 0.000000
vt 0.000000 0.000000
vt 1.000000 1.000000
vt 1.000000 0.000000
vt 1.000000 1.000000
vt 0.000000 0.000000
vt 1.000000 1.000000
vt 0.000000 0.000000
vt 1.000000 0.000000
vt 1.000000 1.000000
vt 0.000000 0.000000
vn 0.7454 0.3333 0.5773
vn -0.3333 0.7454 0.5773
vn 0.1273 0.3333 0.9342
vn -0.3333 0.7454 -0.5773
vn 0.0000 1.0000 0.0000
vn 0.1273 0.3333 -0.9342
vn 0.7454 0.3333 -0.5773
vn 0.6667 0.7454 0.0000
vn 0.8727 -0.3333 0.3568
vn 0.3333 -0.7454 0.5773
vn -0.1273 -0.3333 0.9342
vn -0.7454 -0.3333 0.5773
vn -0.7454 -0.3333 -0.5773
vn -0.8727 0.3333 -0.3568
vn -0.8727 0.3333 0.3568
vn -0.6667 -0.7454 0.0000
vn -0.0000 -1.0000 0.0000
vn 0.8727 -0.3333 -0.3568
vn 0.3333 -0.7454 -0.5773
vn -0.1273 -0.3333 -0.9342
usemtl None
s off
f 3/1/1 7/2/1 10/3/1
f 1/4/2 9/5/2 7/2/2
f 10/6/3 7/2/3 9/5/3
f 1/4/4 8/7/4 11/8/4
f 7/9/5 8/10/5 1/11/5
f 11/12/6 8/7/6 12/13/6
f 12/14/7 8/7/7 3/15/7
f 8/16/8 7/2/8 3/15/8
f 3/1/9 10/17/9 4/18/9
f 10/6/10 5/19/10 4/18/10
f 5/20/11 10/17/11 9/5/11
f 2/21/12 5/19/12 9/5/12
f 2/21/13 11/8/13 6/22/13
f 2/21/14 1/23/14 11/24/14
f 9/25/15 1/23/15 2/26/15
f 6/27/16 5/28/16 2/26/16
f 5/20/17 6/22/17 4/18/17
f 3/1/18 4/29/18 12/13/18
f 4/30/19 6/22/19 12/13/19
f 6/27/20 11/24/20 12/13/20
